# Exported from Wings 3D 2.2.6.1
mtllib Jump.mtl
o JUMP
#66 vertices, 116 faces
v 0.0000000e+0 2.87500000 -0.25000000
v 0.0000000e+0 2.87500000 0.25000000
v 0.0000000e+0 4.00000000 -0.25000000
v 0.0000000e+0 4.00000000 0.25000000
v 2.00000000 4.00000000 -0.25000000
v 2.00000000 4.00000000 0.25000000
v 2.00000000 1.37500000 -0.25000000
v 2.00000000 1.37500000 0.25000000
v -2.00000000 1.37500000 -0.25000000
v -2.00000000 1.37500000 0.25000000
v -1.68750000 2.58203125 0.25000000
v -1.68750000 2.58203125 -0.25000000
v -1.96875000 1.90820313 0.25000000
v -0.96875000 2.84570313 0.25000000
v -1.96875000 1.90820313 -0.25000000
v -0.96875000 2.84570313 -0.25000000
v -1.87500000 2.28906250 0.25000000
v -0.50000000 2.87500000 0.25000000
v -2.00000000 1.46875000 -0.25000000
v -0.50000000 2.87500000 -0.25000000
v -2.00000000 1.46875000 0.25000000
v -1.37500000 2.75781250 0.25000000
v -1.87500000 2.28906250 -0.25000000
v -1.37500000 2.75781250 -0.25000000
v 1.00000000 0.50000000 0.0000000e+0
v 1.00000000 0.50000000 0.50000000
v 1.50000000 1.00000000 0.0000000e+0
v 1.50000000 1.00000000 0.50000000
v 2.00000000 0.50000000 0.0000000e+0
v 2.00000000 0.50000000 0.50000000
v 1.25000000 0.50000000 0.0000000e+0
v 1.75000000 0.50000000 0.0000000e+0
v 1.25000000 0.50000000 0.50000000
v 1.75000000 0.50000000 0.50000000
v 1.25000000 0.0000000e+0 0.0000000e+0
v 1.75000000 0.0000000e+0 0.0000000e+0
v 1.75000000 0.0000000e+0 0.50000000
v 1.25000000 0.0000000e+0 0.50000000
v -0.50000000 0.50000000 -0.25000000
v -0.50000000 0.50000000 0.25000000
v 0.0000000e+0 1.00000000 -0.25000000
v 0.0000000e+0 1.00000000 0.25000000
v 0.50000000 0.50000000 -0.25000000
v 0.50000000 0.50000000 0.25000000
v -0.25000000 0.50000000 -0.25000000
v 0.25000000 0.50000000 -0.25000000
v -0.25000000 0.50000000 0.25000000
v 0.25000000 0.50000000 0.25000000
v -0.25000000 0.0000000e+0 -0.25000000
v 0.25000000 0.0000000e+0 -0.25000000
v 0.25000000 0.0000000e+0 0.25000000
v -0.25000000 0.0000000e+0 0.25000000
v -2.05100000 0.52914286 -0.25000000
v -2.05100000 0.52914286 0.25000000
v -1.50000000 1.08014286 -0.25000000
v -1.50000000 1.08014286 0.25000000
v -0.94900000 0.52914286 -0.25000000
v -0.94900000 0.52914286 0.25000000
v -1.77550000 0.52914286 -0.25000000
v -1.22450000 0.52914286 -0.25000000
v -1.77550000 0.52914286 0.25000000
v -1.22450000 0.52914286 0.25000000
v -1.77550000 -2.1857143e-2 -0.25000000
v -1.22450000 -2.1857143e-2 -0.25000000
v -1.22450000 -2.1857143e-2 0.25000000
v -1.77550000 -2.1857143e-2 0.25000000
vt 0.87227130 0.88180304
vt 0.87227130 0.88310282
vt 0.87227130 0.89653391
vt 0.87227130 0.90346609
vt 0.87227130 0.91819696
vt 0.87270456 0.88919555
vt 0.87400434 0.89447592
vt 0.87660391 0.89853774
vt 0.88093652 0.90097484
vt 0.88613565 0.89653391
vt 0.88613565 0.90346609
vt 0.88656891 0.90219338
vt 0.88812697 0.89653391
vt 0.88812697 0.90346609
vt 0.89236074 0.90000000
vt 0.89281259 0.89653391
vt 0.89281259 0.90346609
vt 0.89306782 0.89653391
vt 0.89306782 0.90000000
vt 0.89306782 0.90259957
vt 0.89306782 0.90346609
vt 0.89509821 0.89306782
vt 0.89509821 0.89653391
vt 0.89509821 0.90346609
vt 0.89509821 0.90693218
vt 0.89618037 0.89236074
vt 0.89618037 0.89653391
vt 0.89618037 0.90000000
vt 0.89618037 0.90346609
vt 0.89653391 0.88180304
vt 0.89653391 0.89135677
vt 0.89653391 0.89220130
vt 0.89653391 0.89261506
vt 0.89653391 0.89306782
vt 0.89653391 0.89459823
vt 0.89653391 0.89618037
vt 0.89653391 0.89653391
vt 0.89653391 0.89862192
vt 0.89653391 0.90000000
vt 0.89653391 0.90346609
vt 0.89653391 0.90381963
vt 0.89653391 0.90405951
vt 0.89653391 0.90540177
vt 0.89653391 0.90693218
vt 0.89653391 0.90779870
vt 0.89653391 0.90864323
vt 0.89653391 0.91819696
vt 0.89809019 0.89653391
vt 0.89809019 0.90346609
vt 0.89826696 0.89306782
vt 0.89826696 0.89653391
vt 0.89826696 0.90346609
vt 0.89826696 0.90693218
vt 0.89857041 0.89653391
vt 0.89857041 0.90346609
vt 0.90000000 0.90259957
vt 0.90000000 0.90693218
vt 0.90000000 0.90763926
vt 0.90000000 0.91819696
vt 0.90173304 0.89306782
vt 0.90173304 0.89653391
vt 0.90173304 0.90346609
vt 0.90173304 0.90693218
vt 0.90190981 0.89653391
vt 0.90190981 0.90346609
vt 0.90346609 0.88180304
vt 0.90346609 0.89135677
vt 0.90346609 0.89220130
vt 0.90346609 0.89261506
vt 0.90346609 0.89306782
vt 0.90346609 0.89459823
vt 0.90346609 0.89618037
vt 0.90346609 0.89653391
vt 0.90346609 0.89862192
vt 0.90346609 0.90000000
vt 0.90346609 0.90346609
vt 0.90346609 0.90381963
vt 0.90346609 0.90405951
vt 0.90346609 0.90540177
vt 0.90346609 0.90693218
vt 0.90346609 0.90779870
vt 0.90346609 0.90864323
vt 0.90346609 0.91819696
vt 0.90381963 0.89236074
vt 0.90381963 0.89653391
vt 0.90381963 0.90000000
vt 0.90381963 0.90346609
vt 0.90490179 0.89306782
vt 0.90490179 0.89653391
vt 0.90490179 0.90346609
vt 0.90490179 0.90693218
vt 0.90504302 0.89653391
vt 0.90504302 0.90346609
vt 0.90693218 0.90259957
vt 0.90693218 0.89653391
vt 0.90693218 0.90000000
vt 0.90693218 0.90346609
vt 0.90763926 0.90000000
vt 0.91187303 0.89653391
vt 0.91187303 0.90346609
vt 0.91343109 0.90219338
vt 0.91386435 0.89653391
vt 0.91386435 0.90346609
vt 0.91906348 0.90097484
vt 0.92339609 0.89853774
vt 0.92599566 0.89447592
vt 0.92729544 0.88919555
vt 0.92772870 0.88180304
vt 0.92772870 0.88310282
vt 0.92772870 0.89653391
vt 0.92772870 0.90346609
vt 0.92772870 0.91819696
vn -1.00000000 0.0000000e+0 0.0000000e+0
vn 0.0000000e+0 1.00000000 0.0000000e+0
vn -1.00000000 0.0000000e+0 0.0000000e+0
vn 0.0000000e+0 1.00000000 0.0000000e+0
vn 0.0000000e+0 0.0000000e+0 -1.00000000
vn 0.0000000e+0 0.0000000e+0 -1.00000000
vn 0.0000000e+0 0.0000000e+0 -1.00000000
vn 0.0000000e+0 0.0000000e+0 -1.00000000
vn -1.00000000 0.0000000e+0 0.0000000e+0
vn 0.0000000e+0 0.0000000e+0 1.00000000
vn 0.0000000e+0 0.0000000e+0 1.00000000
vn 0.0000000e+0 0.0000000e+0 1.00000000
vn 0.0000000e+0 0.0000000e+0 1.00000000
vn 0.0000000e+0 1.00000000 0.0000000e+0
vn 0.0000000e+0 1.00000000 0.0000000e+0
vn -1.00000000 0.0000000e+0 0.0000000e+0
vn 0.0000000e+0 0.0000000e+0 -1.00000000
vn 0.0000000e+0 1.00000000 0.0000000e+0
vn -1.00000000 0.0000000e+0 0.0000000e+0
vn 0.0000000e+0 1.00000000 0.0000000e+0
vn 0.0000000e+0 0.0000000e+0 1.00000000
vn -1.00000000 0.0000000e+0 0.0000000e+0
vn 0.0000000e+0 1.00000000 0.0000000e+0
vn 1.00000000 0.0000000e+0 0.0000000e+0
vn 0.0000000e+0 1.00000000 0.0000000e+0
vn 1.00000000 0.0000000e+0 0.0000000e+0
vn 0.0000000e+0 0.0000000e+0 -1.00000000
vn 0.0000000e+0 0.0000000e+0 -1.00000000
vn 0.0000000e+0 1.00000000 0.0000000e+0
vn 1.00000000 0.0000000e+0 0.0000000e+0
vn 0.0000000e+0 0.0000000e+0 1.00000000
vn 0.0000000e+0 0.0000000e+0 1.00000000
vn 0.0000000e+0 -1.00000000 0.0000000e+0
vn 1.00000000 0.0000000e+0 0.0000000e+0
vn 0.0000000e+0 0.0000000e+0 -1.00000000
vn 0.0000000e+0 0.0000000e+0 -1.00000000
vn 1.00000000 0.0000000e+0 0.0000000e+0
vn 0.0000000e+0 -1.00000000 0.0000000e+0
vn 0.0000000e+0 0.0000000e+0 1.00000000
vn 0.0000000e+0 0.0000000e+0 1.00000000
vn 0.0000000e+0 -1.00000000 0.0000000e+0
vn 1.00000000 0.0000000e+0 0.0000000e+0
vn -1.00000000 0.0000000e+0 0.0000000e+0
vn 0.0000000e+0 -1.00000000 0.0000000e+0
vn -1.00000000 0.0000000e+0 0.0000000e+0
vn 0.0000000e+0 -1.00000000 0.0000000e+0
vn 0.0000000e+0 0.0000000e+0 -1.00000000
vn 0.0000000e+0 0.0000000e+0 -1.00000000
vn 0.0000000e+0 0.0000000e+0 -1.00000000
vn -1.00000000 0.0000000e+0 0.0000000e+0
vn 0.0000000e+0 -1.00000000 0.0000000e+0
vn 0.0000000e+0 0.0000000e+0 1.00000000
vn 0.0000000e+0 0.0000000e+0 1.00000000
vn 0.0000000e+0 0.0000000e+0 1.00000000
vn 0.0000000e+0 0.0000000e+0 1.00000000
vn -0.68669753 0.72694326 0.0000000e+0
vn -0.68669753 0.72694326 0.0000000e+0
vn -0.68669753 0.72694326 0.0000000e+0
vn -0.68669753 0.72694326 0.0000000e+0
vn 0.0000000e+0 0.0000000e+0 -1.00000000
vn -0.68669753 0.72694326 0.0000000e+0
vn -0.68669753 0.72694326 0.0000000e+0
vn -0.98782968 0.15553947 0.0000000e+0
vn 0.0000000e+0 0.0000000e+0 1.00000000
vn 0.0000000e+0 0.0000000e+0 1.00000000
vn 0.0000000e+0 0.0000000e+0 1.00000000
vn -0.98782968 0.15553947 0.0000000e+0
vn 0.0000000e+0 0.0000000e+0 1.00000000
vn 0.0000000e+0 0.0000000e+0 1.00000000
vn 0.0000000e+0 0.0000000e+0 1.00000000
vn -0.13730551 0.99052875 0.0000000e+0
vn -0.13730551 0.99052875 0.0000000e+0
vn -0.98782968 0.15553947 0.0000000e+0
vn -0.98782968 0.15553947 0.0000000e+0
vn -0.98782968 0.15553947 0.0000000e+0
vn -0.98782968 0.15553947 0.0000000e+0
vn 0.0000000e+0 0.0000000e+0 -1.00000000
vn 0.0000000e+0 0.0000000e+0 -1.00000000
vn 0.0000000e+0 0.0000000e+0 -1.00000000
vn -0.13730551 0.99052875 0.0000000e+0
vn -0.13730551 0.99052875 0.0000000e+0
vn -0.13730551 0.99052875 0.0000000e+0
vn -0.13730551 0.99052875 0.0000000e+0
vn 0.0000000e+0 0.0000000e+0 -1.00000000
vn 0.0000000e+0 0.0000000e+0 -1.00000000
vn 0.0000000e+0 0.0000000e+0 -1.00000000
vn -0.91897061 0.39432603 0.0000000e+0
vn -0.91897061 0.39432603 0.0000000e+0
vn 0.0000000e+0 0.0000000e+0 1.00000000
vn 0.0000000e+0 0.0000000e+0 1.00000000
vn -0.91897061 0.39432603 0.0000000e+0
vn -0.91897061 0.39432603 0.0000000e+0
vn -3.1204339e-2 0.99951303 0.0000000e+0
vn -3.1204339e-2 0.99951303 0.0000000e+0
vn 0.0000000e+0 0.0000000e+0 1.00000000
vn 0.0000000e+0 0.0000000e+0 1.00000000
vn 0.0000000e+0 0.0000000e+0 1.00000000
vn -3.1204339e-2 0.99951303 0.0000000e+0
vn -3.1204339e-2 0.99951303 0.0000000e+0
vn -0.99937009 3.5488351e-2 0.0000000e+0
vn -0.99937009 3.5488351e-2 0.0000000e+0
vn 0.0000000e+0 0.0000000e+0 -1.00000000
vn 0.0000000e+0 0.0000000e+0 -1.00000000
vn 0.0000000e+0 0.0000000e+0 -1.00000000
vn -3.1204339e-2 0.99951303 0.0000000e+0
vn -3.1204339e-2 0.99951303 0.0000000e+0
vn 0.0000000e+0 0.0000000e+0 -1.00000000
vn 0.0000000e+0 0.0000000e+0 -1.00000000
vn 0.0000000e+0 0.0000000e+0 -1.00000000
vn -0.99937009 3.5488351e-2 0.0000000e+0
vn -0.99937009 3.5488351e-2 0.0000000e+0
vn 0.0000000e+0 0.0000000e+0 1.00000000
vn 0.0000000e+0 0.0000000e+0 1.00000000
vn 0.0000000e+0 0.0000000e+0 1.00000000
vn -0.99937009 3.5488351e-2 0.0000000e+0
vn -0.99937009 3.5488351e-2 0.0000000e+0
vn -0.35482415 0.93493306 0.0000000e+0
vn -0.35482415 0.93493306 0.0000000e+0
vn 0.0000000e+0 0.0000000e+0 1.00000000
vn 0.0000000e+0 0.0000000e+0 1.00000000
vn 0.0000000e+0 0.0000000e+0 1.00000000
vn -0.35482415 0.93493306 0.0000000e+0
vn -0.35482415 0.93493306 0.0000000e+0
vn -0.91897061 0.39432603 0.0000000e+0
vn 0.0000000e+0 0.0000000e+0 -1.00000000
vn -0.91897061 0.39432603 0.0000000e+0
vn 0.0000000e+0 0.0000000e+0 -1.00000000
vn -0.35482415 0.93493306 0.0000000e+0
vn -0.35482415 0.93493306 0.0000000e+0
vn 0.0000000e+0 0.0000000e+0 -1.00000000
vn 0.0000000e+0 0.0000000e+0 -1.00000000
vn 0.0000000e+0 0.0000000e+0 -1.00000000
vn -0.70710678 0.70710678 0.0000000e+0
vn 0.0000000e+0 -1.00000000 0.0000000e+0
vn 0.0000000e+0 0.0000000e+0 -1.00000000
vn -0.70710678 0.70710678 0.0000000e+0
vn 0.0000000e+0 -1.00000000 0.0000000e+0
vn 0.0000000e+0 0.0000000e+0 1.00000000
vn 0.0000000e+0 -1.00000000 0.0000000e+0
vn -0.70710678 0.70710678 0.0000000e+0
vn 0.0000000e+0 0.0000000e+0 -1.00000000
vn 0.70710678 0.70710678 0.0000000e+0
vn -0.70710678 0.70710678 0.0000000e+0
vn 0.0000000e+0 0.0000000e+0 -1.00000000
vn 0.0000000e+0 0.0000000e+0 -1.00000000
vn 0.0000000e+0 0.0000000e+0 1.00000000
vn 0.70710678 0.70710678 0.0000000e+0
vn -0.70710678 0.70710678 0.0000000e+0
vn 0.70710678 0.70710678 0.0000000e+0
vn 0.0000000e+0 0.0000000e+0 1.00000000
vn 0.0000000e+0 0.0000000e+0 1.00000000
vn -0.70710678 0.70710678 0.0000000e+0
vn 0.0000000e+0 0.0000000e+0 -1.00000000
vn 0.70710678 0.70710678 0.0000000e+0
vn 0.0000000e+0 -1.00000000 0.0000000e+0
vn 0.0000000e+0 -1.00000000 0.0000000e+0
vn 0.70710678 0.70710678 0.0000000e+0
vn 0.0000000e+0 -1.00000000 0.0000000e+0
vn 0.70710678 0.70710678 0.0000000e+0
vn 0.0000000e+0 0.0000000e+0 1.00000000
vn 0.0000000e+0 -1.00000000 0.0000000e+0
vn 0.0000000e+0 0.0000000e+0 -1.00000000
vn -1.00000000 0.0000000e+0 0.0000000e+0
vn 0.0000000e+0 -1.00000000 0.0000000e+0
vn -1.00000000 0.0000000e+0 0.0000000e+0
vn 0.0000000e+0 0.0000000e+0 -1.00000000
vn 0.0000000e+0 0.0000000e+0 -1.00000000
vn 0.0000000e+0 0.0000000e+0 -1.00000000
vn 0.0000000e+0 0.0000000e+0 -1.00000000
vn 0.0000000e+0 -1.00000000 0.0000000e+0
vn 1.00000000 0.0000000e+0 0.0000000e+0
vn 0.0000000e+0 0.0000000e+0 -1.00000000
vn 0.0000000e+0 0.0000000e+0 -1.00000000
vn 0.0000000e+0 -1.00000000 0.0000000e+0
vn 0.0000000e+0 0.0000000e+0 1.00000000
vn -1.00000000 0.0000000e+0 0.0000000e+0
vn 0.0000000e+0 0.0000000e+0 1.00000000
vn 0.0000000e+0 0.0000000e+0 1.00000000
vn 0.0000000e+0 -1.00000000 0.0000000e+0
vn 1.00000000 0.0000000e+0 0.0000000e+0
vn 0.0000000e+0 0.0000000e+0 1.00000000
vn 1.00000000 0.0000000e+0 0.0000000e+0
vn 0.0000000e+0 -1.00000000 0.0000000e+0
vn 0.0000000e+0 0.0000000e+0 1.00000000
vn 0.0000000e+0 0.0000000e+0 1.00000000
vn 0.0000000e+0 0.0000000e+0 1.00000000
vn 0.0000000e+0 0.0000000e+0 -1.00000000
vn -1.00000000 0.0000000e+0 0.0000000e+0
vn 0.0000000e+0 -1.00000000 0.0000000e+0
vn 0.0000000e+0 -1.00000000 0.0000000e+0
vn 0.0000000e+0 0.0000000e+0 -1.00000000
vn 1.00000000 0.0000000e+0 0.0000000e+0
vn 0.0000000e+0 -1.00000000 0.0000000e+0
vn 1.00000000 0.0000000e+0 0.0000000e+0
vn 0.0000000e+0 0.0000000e+0 -1.00000000
vn 0.0000000e+0 -1.00000000 0.0000000e+0
vn 1.00000000 0.0000000e+0 0.0000000e+0
vn 0.0000000e+0 0.0000000e+0 1.00000000
vn 0.0000000e+0 -1.00000000 0.0000000e+0
vn 0.0000000e+0 0.0000000e+0 1.00000000
vn -1.00000000 0.0000000e+0 0.0000000e+0
vn -1.00000000 0.0000000e+0 0.0000000e+0
vn 0.0000000e+0 -1.00000000 0.0000000e+0
vn 0.0000000e+0 0.0000000e+0 1.00000000
vn -0.70710678 0.70710678 0.0000000e+0
vn 0.0000000e+0 -1.00000000 0.0000000e+0
vn 0.0000000e+0 0.0000000e+0 -1.00000000
vn -0.70710678 0.70710678 0.0000000e+0
vn 0.0000000e+0 -1.00000000 0.0000000e+0
vn 0.0000000e+0 0.0000000e+0 1.00000000
vn 0.0000000e+0 -1.00000000 0.0000000e+0
vn -0.70710678 0.70710678 0.0000000e+0
vn 0.0000000e+0 0.0000000e+0 -1.00000000
vn 0.70710678 0.70710678 0.0000000e+0
vn -0.70710678 0.70710678 0.0000000e+0
vn 0.0000000e+0 0.0000000e+0 -1.00000000
vn 0.0000000e+0 0.0000000e+0 -1.00000000
vn 0.0000000e+0 0.0000000e+0 1.00000000
vn 0.70710678 0.70710678 0.0000000e+0
vn -0.70710678 0.70710678 0.0000000e+0
vn 0.70710678 0.70710678 0.0000000e+0
vn 0.0000000e+0 0.0000000e+0 1.00000000
vn 0.0000000e+0 0.0000000e+0 1.00000000
vn -0.70710678 0.70710678 0.0000000e+0
vn 0.0000000e+0 0.0000000e+0 -1.00000000
vn 0.70710678 0.70710678 0.0000000e+0
vn 0.0000000e+0 -1.00000000 0.0000000e+0
vn 0.0000000e+0 -1.00000000 0.0000000e+0
vn 0.70710678 0.70710678 0.0000000e+0
vn 0.0000000e+0 -1.00000000 0.0000000e+0
vn 0.70710678 0.70710678 0.0000000e+0
vn 0.0000000e+0 0.0000000e+0 1.00000000
vn 0.0000000e+0 -1.00000000 0.0000000e+0
vn 0.0000000e+0 0.0000000e+0 -1.00000000
vn -1.00000000 0.0000000e+0 0.0000000e+0
vn 0.0000000e+0 -1.00000000 0.0000000e+0
vn -1.00000000 0.0000000e+0 0.0000000e+0
vn 0.0000000e+0 0.0000000e+0 -1.00000000
vn 0.0000000e+0 0.0000000e+0 -1.00000000
vn 0.0000000e+0 0.0000000e+0 -1.00000000
vn 0.0000000e+0 0.0000000e+0 -1.00000000
vn 0.0000000e+0 -1.00000000 0.0000000e+0
vn 1.00000000 0.0000000e+0 0.0000000e+0
vn 0.0000000e+0 0.0000000e+0 -1.00000000
vn 0.0000000e+0 0.0000000e+0 -1.00000000
vn 0.0000000e+0 -1.00000000 0.0000000e+0
vn 0.0000000e+0 0.0000000e+0 1.00000000
vn -1.00000000 0.0000000e+0 0.0000000e+0
vn 0.0000000e+0 0.0000000e+0 1.00000000
vn 0.0000000e+0 0.0000000e+0 1.00000000
vn 0.0000000e+0 -1.00000000 0.0000000e+0
vn 1.00000000 0.0000000e+0 0.0000000e+0
vn 0.0000000e+0 0.0000000e+0 1.00000000
vn 1.00000000 0.0000000e+0 0.0000000e+0
vn 0.0000000e+0 -1.00000000 0.0000000e+0
vn 0.0000000e+0 0.0000000e+0 1.00000000
vn 0.0000000e+0 0.0000000e+0 1.00000000
vn 0.0000000e+0 0.0000000e+0 1.00000000
vn 0.0000000e+0 0.0000000e+0 -1.00000000
vn -1.00000000 0.0000000e+0 0.0000000e+0
vn 0.0000000e+0 -1.00000000 0.0000000e+0
vn 0.0000000e+0 -1.00000000 0.0000000e+0
vn 0.0000000e+0 0.0000000e+0 -1.00000000
vn 1.00000000 0.0000000e+0 0.0000000e+0
vn 0.0000000e+0 -1.00000000 0.0000000e+0
vn 1.00000000 0.0000000e+0 0.0000000e+0
vn 0.0000000e+0 0.0000000e+0 -1.00000000
vn 0.0000000e+0 -1.00000000 0.0000000e+0
vn 1.00000000 0.0000000e+0 0.0000000e+0
vn 0.0000000e+0 0.0000000e+0 1.00000000
vn 0.0000000e+0 -1.00000000 0.0000000e+0
vn 0.0000000e+0 0.0000000e+0 1.00000000
vn -1.00000000 0.0000000e+0 0.0000000e+0
vn -1.00000000 0.0000000e+0 0.0000000e+0
vn 0.0000000e+0 -1.00000000 0.0000000e+0
vn 0.0000000e+0 0.0000000e+0 1.00000000
vn -0.70710678 0.70710678 0.0000000e+0
vn 0.0000000e+0 -1.00000000 0.0000000e+0
vn 0.0000000e+0 0.0000000e+0 -1.00000000
vn -0.70710678 0.70710678 0.0000000e+0
vn 0.0000000e+0 -1.00000000 0.0000000e+0
vn 0.0000000e+0 0.0000000e+0 1.00000000
vn 0.0000000e+0 -1.00000000 0.0000000e+0
vn -0.70710678 0.70710678 0.0000000e+0
vn 0.0000000e+0 0.0000000e+0 -1.00000000
vn 0.70710678 0.70710678 0.0000000e+0
vn -0.70710678 0.70710678 0.0000000e+0
vn 0.0000000e+0 0.0000000e+0 -1.00000000
vn 0.0000000e+0 0.0000000e+0 -1.00000000
vn 0.0000000e+0 0.0000000e+0 1.00000000
vn 0.70710678 0.70710678 0.0000000e+0
vn -0.70710678 0.70710678 0.0000000e+0
vn 0.70710678 0.70710678 0.0000000e+0
vn 0.0000000e+0 0.0000000e+0 1.00000000
vn 0.0000000e+0 0.0000000e+0 1.00000000
vn -0.70710678 0.70710678 0.0000000e+0
vn 0.0000000e+0 0.0000000e+0 -1.00000000
vn 0.70710678 0.70710678 0.0000000e+0
vn 0.0000000e+0 -1.00000000 0.0000000e+0
vn 0.0000000e+0 -1.00000000 0.0000000e+0
vn 0.70710678 0.70710678 0.0000000e+0
vn 0.0000000e+0 -1.00000000 0.0000000e+0
vn 0.70710678 0.70710678 0.0000000e+0
vn 0.0000000e+0 0.0000000e+0 1.00000000
vn 0.0000000e+0 -1.00000000 0.0000000e+0
vn 0.0000000e+0 0.0000000e+0 -1.00000000
vn -1.00000000 0.0000000e+0 0.0000000e+0
vn 0.0000000e+0 -1.00000000 0.0000000e+0
vn -1.00000000 0.0000000e+0 0.0000000e+0
vn 0.0000000e+0 0.0000000e+0 -1.00000000
vn 0.0000000e+0 0.0000000e+0 -1.00000000
vn 0.0000000e+0 0.0000000e+0 -1.00000000
vn 0.0000000e+0 0.0000000e+0 -1.00000000
vn 0.0000000e+0 -1.00000000 0.0000000e+0
vn 1.00000000 0.0000000e+0 0.0000000e+0
vn 0.0000000e+0 0.0000000e+0 -1.00000000
vn 0.0000000e+0 0.0000000e+0 -1.00000000
vn 0.0000000e+0 -1.00000000 0.0000000e+0
vn 0.0000000e+0 0.0000000e+0 1.00000000
vn -1.00000000 0.0000000e+0 0.0000000e+0
vn 0.0000000e+0 0.0000000e+0 1.00000000
vn 0.0000000e+0 0.0000000e+0 1.00000000
vn 0.0000000e+0 -1.00000000 0.0000000e+0
vn 1.00000000 0.0000000e+0 0.0000000e+0
vn 0.0000000e+0 0.0000000e+0 1.00000000
vn 1.00000000 0.0000000e+0 0.0000000e+0
vn 0.0000000e+0 -1.00000000 0.0000000e+0
vn 0.0000000e+0 0.0000000e+0 1.00000000
vn 0.0000000e+0 0.0000000e+0 1.00000000
vn 0.0000000e+0 0.0000000e+0 1.00000000
vn 0.0000000e+0 0.0000000e+0 -1.00000000
vn -1.00000000 0.0000000e+0 0.0000000e+0
vn 0.0000000e+0 -1.00000000 0.0000000e+0
vn 0.0000000e+0 -1.00000000 0.0000000e+0
vn 0.0000000e+0 0.0000000e+0 -1.00000000
vn 1.00000000 0.0000000e+0 0.0000000e+0
vn 0.0000000e+0 -1.00000000 0.0000000e+0
vn 1.00000000 0.0000000e+0 0.0000000e+0
vn 0.0000000e+0 0.0000000e+0 -1.00000000
vn 0.0000000e+0 -1.00000000 0.0000000e+0
vn 1.00000000 0.0000000e+0 0.0000000e+0
vn 0.0000000e+0 0.0000000e+0 1.00000000
vn 0.0000000e+0 -1.00000000 0.0000000e+0
vn 0.0000000e+0 0.0000000e+0 1.00000000
vn -1.00000000 0.0000000e+0 0.0000000e+0
vn -1.00000000 0.0000000e+0 0.0000000e+0
vn 0.0000000e+0 -1.00000000 0.0000000e+0
vn 0.0000000e+0 0.0000000e+0 1.00000000
g JUMP
usemtl icons
s 1
f 1/32/3 4/81/22 3/45/16
f 2/68/9 4/81/19 1/32/1
f 5/83/26 8/30/42 7/66/34
f 6/47/30 8/30/37 5/83/24
f 25/63/134 31/53/164 26/60/139
f 26/60/137 31/53/161 33/50/174
f 27/25/142 28/22/147 29/91/154
f 29/91/157 28/22/149 30/88/159
f 36/44/193 38/70/203 35/80/189
f 37/34/196 38/70/199 36/44/190
f 39/24/205 42/89/220 41/90/215
f 40/23/212 42/89/224 39/24/208
f 43/52/227 48/61/251 46/62/242
f 44/51/230 48/61/255 43/52/228
f 50/40/265 52/73/275 49/76/261
f 51/37/268 52/73/271 50/40/262
f 53/65/278 59/49/308 54/64/283
f 54/64/281 59/49/305 61/48/318
f 55/79/286 56/43/291 57/71/298
f 57/71/301 56/43/293 58/35/303
f 62/41/326 64/72/338 60/77/315
f 64/72/336 62/41/324 65/36/341
s 2
f 3/11/15 4/10/20 5/103/25
f 6/102/29 5/103/23 4/10/18
f 7/4/33 8/3/41 9/111/46
f 9/111/44 8/3/38 10/110/51
f 25/25/133 28/88/148 27/91/143
f 26/22/140 28/88/152 25/25/136
f 31/21/165 38/95/202 33/97/176
f 34/21/182 36/95/194 32/97/171
f 35/18/188 38/95/201 31/21/163
f 36/95/192 34/21/180 37/18/197
f 41/24/214 42/23/219 43/90/226
f 43/90/229 42/23/221 44/89/231
f 45/40/237 52/73/274 47/76/248
f 48/40/254 50/73/266 46/76/243
f 49/37/260 52/73/273 45/40/235
f 50/73/264 48/40/252 51/37/269
f 53/35/277 56/79/292 55/43/287
f 54/71/284 56/79/296 53/35/280
f 57/49/299 62/64/323 60/65/314
f 58/48/302 62/64/327 57/49/300
f 59/41/309 66/72/346 61/77/320
f 63/36/332 66/72/345 59/41/307
s 3
f 1/56/6 9/108/48 20/94/109
f 2/56/12 6/112/32 4/59/21
f 3/59/17 5/5/27 1/56/5
f 6/112/31 2/56/11 8/108/40
f 7/1/35 1/56/7 5/5/28
f 8/108/39 2/56/10 10/1/52
f 9/108/49 1/56/8 7/1/36
f 10/1/54 18/20/96 21/2/113
f 12/105/60 24/104/130 23/106/125
f 13/6/66 22/9/121 17/7/90
f 14/12/70 21/2/114 18/20/97
f 15/107/79 16/101/86 19/109/103
f 16/101/85 15/107/78 24/104/132
f 17/7/89 22/9/119 11/8/55
f 18/20/95 10/1/53 2/56/13
f 19/109/104 20/94/108 9/108/47
f 20/94/107 19/109/102 16/101/84
f 21/2/112 14/12/68 13/6/64
f 22/9/120 13/6/65 14/12/69
f 23/106/127 24/104/131 15/107/77
f 29/53/155 34/60/179 32/63/170
f 30/50/158 34/60/183 29/53/156
f 40/19/210 47/39/247 42/57/218
f 41/57/217 45/75/240 39/96/207
f 42/57/223 48/75/258 44/96/232
f 43/19/225 46/39/241 41/57/213
f 45/75/239 41/57/216 46/39/245
f 46/39/244 50/34/267 45/75/238
f 47/39/249 52/34/276 48/75/256
f 48/75/257 42/57/222 47/39/250
f 49/70/259 45/75/234 50/34/263
f 51/70/270 48/75/253 52/34/272
f 64/29/337 66/85/347 63/87/333
f 65/27/340 66/85/343 64/29/334
s 4
f 2/99/14 1/100/4 18/92/98
f 9/31/45 21/69/116 19/33/101
f 10/67/50 21/69/110 9/31/43
f 11/82/57 12/46/62 17/78/91
f 11/13/56 22/16/123 12/14/61
f 12/14/59 22/16/117 24/17/128
f 13/74/67 15/38/76 21/69/115
f 14/54/72 16/55/83 22/16/122
f 15/38/75 17/78/92 23/42/126
f 16/55/80 18/92/94 20/93/106
f 17/78/88 15/38/74 13/74/63
f 18/92/99 16/55/82 14/54/71
f 19/33/100 21/69/111 15/38/73
f 20/93/105 18/92/93 1/100/2
f 23/42/124 17/78/87 12/46/58
f 24/17/129 22/16/118 16/55/81
f 26/19/138 33/39/175 28/57/146
f 27/57/145 31/75/168 25/96/135
f 28/57/151 34/75/186 30/96/160
f 29/19/153 32/39/169 27/57/141
f 31/75/167 27/57/144 32/39/173
f 32/39/172 36/34/195 31/75/166
f 33/39/177 38/34/204 34/75/184
f 34/75/185 28/57/150 33/39/178
f 35/70/187 31/75/162 36/34/191
f 37/70/198 34/75/181 38/34/200
f 39/62/206 45/52/236 40/61/211
f 40/61/209 45/52/233 47/51/246
f 54/15/282 61/28/319 56/58/290
f 55/58/289 59/86/312 53/98/279
f 56/58/295 62/86/330 58/98/304
f 57/15/297 60/28/313 55/58/285
f 59/86/311 55/58/288 60/28/317
f 60/28/316 64/26/339 59/86/310
f 61/28/321 66/26/348 62/86/328
f 62/86/329 56/58/294 61/28/322
f 63/84/331 59/86/306 64/26/335
f 65/84/342 62/86/325 66/26/344
